<?xml version="1.0" encoding="UTF-8"?>
<svg xmlns="http://www.w3.org/2000/svg" xmlns:xlink="http://www.w3.org/1999/xlink" width="650px" height="197px" viewBox="0 0 650 197" version="1.1">
<g id="surface1">
<path style=" stroke:none;fill-rule:nonzero;fill:rgb(100%,100%,100%);fill-opacity:1;" d="M 174.550781 197 L 34.136719 197 C 15.847656 197 0.964844 182.097656 0.964844 163.785156 L 0.964844 33.214844 C 0.964844 14.902344 15.847656 0 34.136719 0 L 174.570312 0 C 192.855469 0 207.738281 14.902344 207.738281 33.214844 L 207.738281 163.785156 C 207.71875 182.097656 192.855469 197 174.550781 197 Z M 34.136719 9.628906 C 21.15625 9.628906 10.582031 20.21875 10.582031 33.214844 L 10.582031 163.785156 C 10.582031 176.78125 21.15625 187.371094 34.136719 187.371094 L 174.570312 187.371094 C 187.566406 187.371094 198.125 176.78125 198.125 163.785156 L 198.125 33.214844 C 198.125 20.21875 187.546875 9.628906 174.570312 9.628906 Z M 34.136719 9.628906 "/>
<path style=" stroke:none;fill-rule:nonzero;fill:rgb(100%,100%,100%);fill-opacity:1;" d="M 318.886719 32.867188 C 320.25 33.003906 321.597656 33.0625 322.902344 33.0625 C 324.210938 33.0625 325.558594 33.117188 326.921875 33.253906 C 332.039062 33.503906 337.039062 34.3125 341.960938 35.679688 C 346.882812 37.046875 351.210938 39.609375 354.941406 43.34375 C 358.304688 46.578125 360.824219 50.390625 362.515625 54.761719 C 364.191406 59.132812 365.226562 63.621094 365.59375 68.242188 C 365.59375 69.105469 365.632812 69.992188 365.6875 70.859375 C 365.746094 71.726562 365.785156 72.613281 365.785156 73.476562 C 365.902344 82.835938 363.765625 90.902344 359.34375 97.699219 C 354.921875 104.496094 348.035156 109.023438 338.691406 111.257812 L 372.132812 167.191406 L 340.363281 167.191406 L 310.847656 114.433594 L 277.597656 114.433594 L 277.597656 167.191406 L 249.390625 167.191406 L 249.390625 32.867188 Z M 312.15625 56.820312 L 277.597656 56.820312 L 277.597656 90.691406 L 312.15625 90.691406 C 312.40625 90.828125 312.65625 90.882812 312.90625 90.882812 C 313.15625 90.882812 313.40625 90.882812 313.65625 90.882812 C 319.636719 90.882812 325.078125 89.980469 330 88.167969 C 334.921875 86.359375 337.308594 81.585938 337.191406 73.863281 C 337.191406 65.890625 334.59375 61.078125 329.441406 59.460938 C 324.269531 57.84375 318.519531 57.035156 312.15625 57.035156 Z M 312.15625 56.820312 "/>
<path style=" stroke:none;fill-rule:nonzero;fill:rgb(100%,100%,100%);fill-opacity:1;" d="M 450.992188 32.867188 C 471.414062 33.003906 486.679688 38.046875 496.757812 48.023438 C 506.851562 57.996094 512.582031 73.59375 513.949219 94.792969 C 514.0625 96.660156 514.160156 98.527344 514.238281 100.398438 C 514.292969 102.265625 514.273438 104.210938 514.140625 106.191406 C 513.890625 115.414062 512.273438 124.425781 509.273438 133.226562 C 506.292969 142.027344 501.046875 149.476562 493.585938 155.582031 C 487.488281 160.570312 480.910156 163.746094 473.875 165.132812 C 466.835938 166.5 459.453125 167.191406 451.742188 167.191406 L 389.515625 167.191406 L 389.515625 32.867188 Z M 450.414062 56.265625 L 417.722656 56.265625 L 417.722656 143.816406 L 450.414062 143.816406 C 450.664062 143.953125 450.953125 144.007812 451.261719 144.007812 C 451.566406 144.007812 451.855469 144.007812 452.105469 144.007812 C 456.222656 144.007812 460.242188 143.605469 464.164062 142.796875 C 468.085938 141.988281 471.546875 139.890625 474.527344 136.539062 C 477.507812 133.054688 479.605469 129.125 480.796875 124.753906 C 481.96875 120.382812 482.757812 115.953125 483.125 111.46875 C 483.238281 109.601562 483.316406 107.734375 483.316406 105.847656 C 483.316406 103.957031 483.316406 102.109375 483.316406 100.222656 C 483.316406 98.355469 483.316406 96.390625 483.316406 94.332031 C 483.316406 92.269531 483.179688 90.25 482.949219 88.246094 C 482.699219 83.875 481.988281 79.582031 480.796875 75.328125 C 479.605469 71.089844 477.527344 67.355469 474.527344 64.101562 C 471.546875 60.730469 468.085938 58.613281 464.164062 57.746094 C 460.242188 56.878906 456.222656 56.4375 452.105469 56.4375 C 451.855469 56.4375 451.566406 56.4375 451.261719 56.4375 C 450.953125 56.4375 450.664062 56.4375 450.414062 56.4375 Z M 450.414062 56.265625 "/>
<path style=" stroke:none;fill-rule:nonzero;fill:rgb(100%,100%,100%);fill-opacity:1;" d="M 561.773438 32.867188 L 561.773438 97.410156 L 614.652344 32.867188 L 648.476562 32.867188 L 594.671875 98.527344 L 649.035156 167.191406 L 612.980469 167.191406 L 561.789062 100.398438 L 561.789062 167.191406 L 533.582031 167.191406 L 533.582031 32.867188 Z M 561.773438 32.867188 "/>
<path style=" stroke:none;fill-rule:nonzero;fill:rgb(100%,100%,100%);fill-opacity:1;" d="M 55.460938 133.417969 L 48.921875 133.417969 C 47.328125 133.4375 46.171875 133.59375 45.5 133.921875 C 44.65625 134.304688 44.039062 134.863281 43.65625 135.613281 C 43.269531 136.367188 43.078125 137.386719 43.078125 138.65625 L 43.078125 139.871094 L 55.460938 139.871094 L 55.460938 142.566406 L 43.078125 142.566406 L 43.078125 151.886719 L 39.695312 151.886719 L 39.695312 139.097656 C 39.695312 137.867188 39.75 136.921875 39.867188 136.269531 C 39.980469 135.613281 40.195312 134.980469 40.5 134.382812 C 41.195312 133.035156 42.191406 132.089844 43.5 131.550781 C 44.808594 131.011719 46.710938 130.722656 49.191406 130.722656 L 55.441406 130.722656 L 55.441406 133.417969 Z M 55.460938 133.417969 "/>
<path style=" stroke:none;fill-rule:nonzero;fill:rgb(100%,100%,100%);fill-opacity:1;" d="M 78.535156 151.90625 L 73.324219 151.90625 C 71.691406 151.90625 70.363281 151.75 69.402344 151.441406 C 68.421875 151.132812 67.574219 150.59375 66.84375 149.824219 C 66.191406 149.152344 65.710938 148.324219 65.441406 147.359375 C 65.171875 146.398438 65.039062 145.105469 65.039062 143.453125 L 65.039062 130.722656 L 68.421875 130.722656 L 68.421875 143.046875 C 68.421875 144.375 68.5 145.394531 68.652344 146.089844 C 68.808594 146.800781 69.058594 147.359375 69.421875 147.765625 C 70.402344 148.746094 71.941406 149.226562 74 149.207031 L 78.535156 149.207031 Z M 78.535156 151.90625 "/>
<path style=" stroke:none;fill-rule:nonzero;fill:rgb(100%,100%,100%);fill-opacity:1;" d="M 102.476562 133.417969 L 96.304688 133.417969 C 95.171875 133.417969 94.285156 133.496094 93.671875 133.648438 C 93.054688 133.804688 92.476562 134.074219 91.996094 134.476562 C 91.324219 135.035156 90.804688 135.710938 90.476562 136.558594 C 90.152344 137.386719 89.941406 138.503906 89.84375 139.871094 L 102.476562 139.871094 L 102.476562 142.566406 L 89.84375 142.566406 C 89.804688 144.085938 90.152344 145.472656 90.84375 146.707031 C 91.363281 147.609375 92.035156 148.265625 92.824219 148.632812 C 93.613281 148.996094 94.726562 149.1875 96.132812 149.1875 L 102.476562 149.1875 L 102.476562 151.886719 L 95.515625 151.886719 C 93.746094 151.886719 92.304688 151.691406 91.191406 151.289062 C 89.210938 150.554688 87.746094 148.996094 86.84375 146.550781 C 86.34375 145.242188 86.09375 143.644531 86.09375 141.71875 C 86.09375 139.15625 86.496094 137.097656 87.304688 135.519531 C 88.210938 133.765625 89.34375 132.535156 90.726562 131.800781 C 92.113281 131.070312 94.035156 130.722656 96.496094 130.722656 L 102.457031 130.722656 L 102.457031 133.417969 Z M 102.476562 133.417969 "/>
<path style=" stroke:none;fill-rule:nonzero;fill:rgb(100%,100%,100%);fill-opacity:1;" d="M 102.265625 99.839844 C 100.402344 96.835938 97.671875 92.675781 97.671875 92.675781 C 103.246094 88.417969 107.304688 84.875 111.648438 80.8125 C 117.304688 89.304688 123.496094 98.953125 123.496094 105.863281 C 123.496094 113.027344 114.917969 111.699219 112.785156 110.5625 C 109.167969 108.597656 105.554688 105.152344 102.265625 99.839844 Z M 102.265625 99.839844 "/>
<path style=" stroke:none;fill-rule:nonzero;fill:rgb(100%,100%,100%);fill-opacity:1;" d="M 127.359375 151.90625 L 120.824219 143.453125 L 114.574219 151.90625 L 110.476562 151.90625 L 118.765625 141.042969 L 111.746094 130.722656 L 115.785156 130.722656 L 120.996094 138.503906 L 126.839844 130.722656 L 130.878906 130.722656 L 122.957031 141.042969 L 131.457031 151.90625 Z M 127.359375 151.90625 "/>
<path style=" stroke:none;fill-rule:nonzero;fill:rgb(100%,100%,100%);fill-opacity:1;" d="M 140.242188 130.722656 L 143.628906 130.722656 L 143.628906 151.90625 L 140.242188 151.90625 Z M 140.242188 130.722656 "/>
<path style=" stroke:none;fill-rule:nonzero;fill:rgb(100%,100%,100%);fill-opacity:1;" d="M 165.433594 151.90625 L 161.433594 151.90625 L 152.359375 130.722656 L 156.261719 130.722656 L 163.492188 148.726562 L 170.820312 130.722656 L 174.453125 130.722656 Z M 165.433594 151.90625 "/>
<path style=" stroke:none;fill-rule:nonzero;fill:rgb(100%,100%,100%);fill-opacity:1;" d="M 173.570312 110.371094 C 171.625 111.160156 166.222656 111.351562 161.628906 111.351562 C 157.992188 111.351562 153.933594 108.425781 151.992188 103.652344 C 147.128906 91.617188 138.992188 66.390625 128.285156 65.507812 C 120.417969 64.890625 115.996094 72.9375 95.554688 88.246094 C 54.597656 118.957031 40.710938 114.453125 32.847656 98.605469 C 24.984375 82.757812 34.714844 63.90625 44.617188 56.03125 C 54.519531 48.15625 61.863281 45.941406 70.980469 46.386719 C 80.09375 46.828125 86.554688 48.871094 98.132812 61.171875 C 94.152344 64.984375 88.226562 71.4375 85.746094 73.824219 C 85.746094 73.824219 81.152344 67.796875 73.632812 62.058594 C 66.113281 56.398438 54.960938 58.515625 48.25 64.175781 C 40.828125 70.378906 36.925781 79.929688 37.980469 87.554688 C 39.039062 95.160156 41.695312 98.257812 45.058594 100.300781 C 48.328125 102.339844 54.078125 103.132812 59.828125 100.203125 C 80.613281 89.769531 109.015625 52.488281 119.628906 47.542969 C 155.878906 30.710938 192.507812 106.386719 173.570312 110.371094 Z M 173.570312 110.371094 "/>
</g>
</svg>
